<?xml version="1.0" encoding="UTF-8"?>
<svg id="Capa_1" xmlns="http://www.w3.org/2000/svg" version="1.1" viewBox="0 0 250 250">
  <!-- Generator: Adobe Illustrator 29.4.0, SVG Export Plug-In . SVG Version: 2.1.0 Build 152)  -->
  <defs>
    <style>
      .st0 {
        fill: #fff;
      }
    </style>
  </defs>
  <circle cx="125" cy="125" r="121.77"/>
  <g>
    <path class="st0" d="M120.27,131.6l-4.44-2.5c-.22-.12-.45-.25-.68-.37h-1.07l-.03-.57c-2.45-1.22-5.16-2.28-8.1-3.16-4.43-1.31-10.64-2.14-18.97-2.51l-1.33-.06-1.03-.84c-1.47-1.21-2.75-2.39-3.89-3.62-11.06-11.8-13-29.5-13.31-36.56-.07-1.82.62-3.59,1.91-4.88,1.24-1.24,2.93-1.9,4.63-1.83,6.71.33,23.45,2.39,34.65,14.31.49.52.98,1.05,1.45,1.65l.79,1,.07,1.27c.6,11.05,5.31,21.02,9.48,27.8h1.2l.27,3.72c.05.78-.02,1.54-.22,2.24l-1.38,4.91ZM88.71,114.56c8.32.44,14.72,1.34,19.52,2.77.48.14.95.29,1.42.44-3.16-6.48-5.93-14.39-6.63-23.01-.09-.1-.18-.19-.27-.29-8.28-8.82-20.7-11.08-27.25-11.64.5,6.97,2.6,20.65,11.06,29.67.65.69,1.35,1.37,2.14,2.06Z"/>
    <path class="st0" d="M129.25,131.75l-.87-5.74c-.06-.37-.12-.95-.06-1.64l.07-1.53.57-.9c4.31-6.74,9.58-17.23,10.24-28.97l.07-1.28.81-1c.46-.57.94-1.1,1.43-1.64,11.23-11.96,27.98-14.02,34.66-14.35,1.74-.07,3.43.59,4.67,1.83,1.28,1.28,1.98,3.05,1.9,4.86v.02c-.3,7.05-2.21,24.72-13.3,36.56-.9.97-1.91,1.93-3.08,2.93l-.99.97-1.54.1c-12.9.63-22.28,2.83-29.53,6.93l-5.05,2.86ZM147.1,94.81c-.7,8.53-3.42,16.34-6.53,22.77,6.08-1.89,13.12-3.04,21.46-3.53.57-.53,1.09-1.04,1.57-1.55,8.48-9.05,10.56-22.7,11.05-29.67-6.52.56-18.97,2.82-27.26,11.66-.09.1-.19.21-.29.32Z"/>
    <path class="st0" d="M120.38,132.16l-2.22-1.63c-.14-.1-.29-.2-.44-.3-.18-.12-.36-.24-.55-.38l-.56-.39-.4-.56c-.56-.79-1.13-1.64-1.72-2.55-4.88-7.62-10.82-19.49-11.55-32.99-.06-.86-.08-1.8-.08-2.84,0-20.19,11.98-37.12,17.13-43.47,1.26-1.54,3.11-2.42,5.07-2.42h0c1.97,0,3.81.88,5.07,2.42,4.81,5.93,15.57,21.07,16.99,39.48h.16v4c.01,1.06-.02,2.01-.07,2.93-.76,13.48-6.67,25.28-11.49,32.81l-.38.58c-.4.6-.79,1.19-1.18,1.74l-.47.66-.69.43c-.47.29-.94.59-1.39.9l-2.15,1.44-2.19-1.37c-1.31-.82-3.2-.82-4.55.05l-2.31,1.49ZM125,121.99c1.22,0,2.43.18,3.58.53.03-.04.05-.08.08-.11l.35-.53c4.27-6.66,9.54-17.14,10.2-28.91.03-.47.05-.94.06-1.44v-1.01c0-16.3-9.18-30.46-14.21-36.99-5.02,6.52-14.21,20.68-14.21,36.99,0,.86.02,1.64.07,2.37.64,11.8,5.94,22.34,10.28,29.11.11.17.22.34.33.51,1.13-.33,2.3-.51,3.47-.51Z"/>
    <path class="st0" d="M125,130c-2.21,0-4-1.79-4-4v-45.21c0-2.21,1.79-4,4-4s4,1.79,4,4v45.21c0,2.21-1.79,4-4,4Z"/>
    <path class="st0" d="M125.04,205.38c-3.97-.03-9.66-1.49-14.54-8.23-1.58-2.19-3.52-2.83-6.34-3.22-36-4.93-51.98-19.41-59.04-30.69-7.35-11.74-6.9-22.49-6.77-24.29v-30.12c0-2.13,1.19-4.02,3.11-4.93,1.93-.92,4.17-.65,5.84.7,2.84,2.37,11.38,9.46,23.13,9.52,4.89.03,11.23.09,16.93.39,8.96.4,15.8,1.33,20.87,2.84,4.25,1.27,8.12,2.88,11.53,4.8.62.34,1.24.7,1.81,1.06l.7.43.47.68c.29.41.52.75.74,1.08l1.55,2.37,1.97-2.91c.17-.25.35-.51.52-.77l.45-.69.69-.45c.56-.37,1.13-.7,1.75-1.03,8.06-4.54,18.1-7.05,31.5-7.84h0s1.54-.1,1.54-.1c4.53-.22,8.78-.23,12.52-.24,2.25,0,4.37,0,6.16-.06,8.96-.25,17.33-6.4,20.52-9.04,1.68-1.37,3.91-1.65,5.85-.73,1.93.91,3.12,2.81,3.12,4.94v30.13c.14,1.8.58,12.56-6.77,24.3-7.07,11.28-23.05,25.77-59.04,30.69-2.8.38-4.74,1.03-6.35,3.23-4.88,6.73-10.55,8.19-14.45,8.22ZM46.35,113.97l-.02,25.56c-.14,1.53-2.84,38.02,58.91,46.48,3.65.5,8.28,1.68,11.73,6.45,2.35,3.24,5.06,4.9,8.07,4.93,2.92-.02,5.63-1.68,7.98-4.93,3.49-4.78,8.1-5.96,11.73-6.45,61.75-8.45,59.05-44.95,58.91-46.5l-.02-.4v-25.22c-5.23,3.59-12.83,7.52-21.26,7.76-1.89.06-4.07.06-6.37.07-3.33,0-7.07.01-10.99.18l-1.18.07c-12.1.59-21.11,2.57-28.17,6.2,1.07,1.83,1.64,3.94,1.64,6.16,0,6.8-5.52,12.33-12.31,12.33s-12.33-5.53-12.33-12.33c0-2.15.56-4.23,1.59-6.05-2.52-1.28-5.3-2.37-8.31-3.26-4.43-1.31-10.64-2.14-18.97-2.51-5.56-.29-11.78-.35-16.59-.38-10.7-.05-19.03-4.6-24.04-8.13ZM125.03,129.01l-2.57,1.82c-1.12.79-1.79,2.09-1.79,3.48,0,2.39,1.94,4.33,4.33,4.33s4.31-1.94,4.31-4.33c0-1.38-.63-2.63-1.74-3.44l-2.54-1.86ZM95.53,168.12c-4.3,0-9-.71-13.42-2.83l-2.27-1.09v-.15c-11.31-6.85-15.71-20.75-15.9-21.38l-1.43-4.63,4.82-.52c2.08-.23,20.57-2.1,28.26,1.57,13.44,6.36,17.72,20.76,17.9,21.37l1,3.49-3.37,1.34c-.43.17-7.26,2.83-15.6,2.83ZM86.1,158.33c6.35,2.79,13.77,1.76,18.19.69-1.87-3.81-5.64-9.62-12.13-12.7-3.32-1.59-11.72-1.67-18.58-1.28,2.12,4.22,5.99,10.16,11.98,13.03l.54.26ZM154.96,168.11c-8.33,0-15.17-2.66-15.6-2.83l-3.38-1.34,1.01-3.49c.18-.61,4.48-14.99,17.9-21.37,7.71-3.67,26.17-1.8,28.26-1.57l4.82.52-1.43,4.63c-.19.63-4.59,14.54-15.9,21.38v.14l-2.27,1.1c-4.42,2.12-9.12,2.83-13.42,2.83ZM146.19,159.01c4.41,1.07,11.83,2.11,18.19-.68l.55-.26c5.99-2.87,9.86-8.81,11.98-13.03-6.86-.39-15.25-.3-18.57,1.28-6.54,3.11-10.29,8.9-12.15,12.7Z"/>
    <path class="st0" d="M125.01,146.64c-6.8,0-12.33-5.53-12.33-12.33,0-3.98,1.93-7.72,5.16-10.01l.18-.12c.13-.09.26-.18.38-.26,1.95-1.26,4.25-1.93,6.61-1.93s4.47.6,6.39,1.79c.45.25.79.52,1.05.73,3.1,2.34,4.88,5.9,4.88,9.79h0c0,6.81-5.52,12.34-12.31,12.34ZM122.47,130.83h0c-1.12.79-1.79,2.09-1.79,3.48,0,2.39,1.94,4.33,4.33,4.33s4.31-1.94,4.31-4.33h0c0-1.39-.63-2.64-1.74-3.45l-.35-.25c-.65-.42-1.38-.62-2.22-.62s-1.62.23-2.31.68l-.24.17Z"/>
  </g>
</svg>