<?xml version="1.0" encoding="UTF-8"?>
<svg id="Capa_1" data-name="Capa 1" xmlns="http://www.w3.org/2000/svg" viewBox="0 0 149.14 46.97">
  <defs>
    <style>
      .cls-1 {
        fill: #fff;
      }
    </style>
  </defs>
  <g>
    <path class="cls-1" d="M56.48,21.33c-.08.71-.14,1.4-.17,2.07-.03.67-.05,1.18-.05,1.52,0,.37.01.71.03,1.05.02.33.04.61.06.84h-.7c-.12-1.2-.29-2.14-.52-2.84s-.6-1.2-1.14-1.49c-.54-.29-1.34-.44-2.42-.44h-2.52c-.69,0-1.21.06-1.57.17-.35.11-.59.35-.71.7s-.18.91-.18,1.66v15.09c0,.73.06,1.28.18,1.64s.36.6.71.71c.35.11.88.17,1.57.17h2.22c1.28,0,2.25-.17,2.91-.52.66-.34,1.14-.91,1.43-1.69.29-.78.51-1.84.65-3.18h.7c-.06.55-.09,1.28-.09,2.19,0,.39.02.94.05,1.66.03.72.09,1.46.17,2.24-1.03-.04-2.2-.07-3.5-.08-1.3,0-2.45-.01-3.47-.01h-1.72c-.7,0-1.46,0-2.27.01-.81.01-1.63.02-2.46.03-.83.01-1.62.03-2.37.05v-.61c.69-.04,1.21-.12,1.57-.24.35-.12.59-.37.71-.73s.18-.91.18-1.64v-15.09c0-.75-.06-1.3-.18-1.66s-.36-.6-.71-.73c-.35-.13-.88-.21-1.57-.23v-.61c.75.02,1.54.04,2.37.04.83.01,1.65.02,2.46.03.81.01,1.57.02,2.27.02h1.72c.93,0,1.99,0,3.18-.02,1.19,0,2.25-.04,3.18-.08ZM51.25,31.74v.61h-5.57v-.61h5.57ZM52.14,27.72c-.08,1.16-.12,2.04-.11,2.65,0,.61.02,1.17.02,1.67s0,1.06.03,1.67c.02.61.07,1.49.15,2.65h-.7c-.08-.65-.18-1.28-.29-1.9-.11-.62-.35-1.12-.73-1.52-.38-.4-1.01-.59-1.9-.59v-.61c.67,0,1.18-.14,1.54-.41.35-.27.61-.62.78-1.05.16-.43.27-.87.33-1.32.06-.46.12-.87.18-1.23h.7Z"/>
    <path class="cls-1" d="M78.93,21.33v.61c-.69.02-1.21.12-1.57.3s-.59.48-.71.88c-.12.41-.18.98-.18,1.73v18.16h-.7l-12.78-19.74v16.06c0,.73.07,1.3.2,1.72.13.42.4.71.79.88.4.17.99.28,1.78.32v.61c-.37-.04-.84-.07-1.43-.08-.59,0-1.15-.01-1.67-.01s-1.02,0-1.54.01c-.52.01-.95.04-1.29.08v-.61c.69-.04,1.21-.15,1.57-.32.35-.17.59-.47.71-.88.12-.42.18-.99.18-1.72v-14.78c0-.75-.06-1.3-.18-1.66s-.36-.6-.71-.73c-.35-.13-.88-.21-1.57-.23v-.61c.34.02.78.04,1.29.06s1.03.03,1.54.03c.45,0,.87,0,1.28-.03.41-.02.77-.04,1.1-.06l10.74,16.55v-13.02c0-.75-.07-1.33-.2-1.73-.13-.41-.4-.7-.79-.88s-.99-.28-1.78-.3v-.61c.36.02.85.04,1.44.06.6.02,1.15.03,1.66.03s1.05,0,1.57-.03.94-.04,1.26-.06Z"/>
    <path class="cls-1" d="M96.49,21.33c-.08.71-.14,1.4-.17,2.07-.03.67-.04,1.18-.04,1.52,0,.37,0,.71.03,1.05.02.33.04.61.06.84h-.7c-.12-1.2-.29-2.14-.52-2.84-.22-.7-.6-1.2-1.14-1.49s-1.34-.44-2.42-.44h-2.53c-.69,0-1.21.06-1.57.17-.35.11-.59.35-.71.7-.12.35-.18.91-.18,1.66v15.09c0,.73.06,1.28.18,1.64.12.37.36.6.71.71.35.11.88.17,1.57.17h2.22c1.28,0,2.25-.17,2.91-.52s1.14-.91,1.43-1.69c.29-.78.51-1.84.65-3.18h.7c-.06.55-.09,1.28-.09,2.19,0,.39.01.94.04,1.66.03.72.09,1.46.17,2.24-1.03-.04-2.2-.07-3.5-.08-1.3,0-2.45-.01-3.47-.01h-1.72c-.7,0-1.46,0-2.27.01-.81.01-1.63.02-2.46.03-.83.01-1.62.03-2.37.05v-.61c.69-.04,1.21-.12,1.57-.24.36-.12.59-.37.71-.73.12-.37.18-.91.18-1.64v-15.09c0-.75-.06-1.3-.18-1.66-.12-.35-.36-.6-.71-.73-.35-.13-.88-.21-1.57-.23v-.61c.75.02,1.54.04,2.37.04.83.01,1.65.02,2.46.03.81.01,1.57.02,2.27.02h1.72c.93,0,1.99,0,3.18-.02,1.19,0,2.25-.04,3.18-.08ZM91.25,31.74v.61h-5.57v-.61h5.57ZM92.14,27.72c-.08,1.16-.12,2.04-.11,2.65.01.61.02,1.17.02,1.67s0,1.06.03,1.67.07,1.49.15,2.65h-.7c-.08-.65-.18-1.28-.29-1.9-.11-.62-.35-1.12-.73-1.52-.38-.4-1.01-.59-1.9-.59v-.61c.67,0,1.18-.14,1.54-.41s.61-.62.78-1.05c.16-.43.27-.87.33-1.32.06-.46.12-.87.18-1.23h.7Z"/>
    <path class="cls-1" d="M109.84,20.91c1.34,0,2.44.2,3.3.59.86.4,1.63.86,2.3,1.38.41.3.71.34.93.11.21-.23.36-.79.44-1.66h.7c-.04.75-.07,1.66-.09,2.74-.02,1.08-.03,2.49-.03,4.26h-.7c-.14-.87-.27-1.57-.4-2.08-.12-.52-.27-.96-.44-1.32-.17-.37-.4-.73-.68-1.09-.63-.83-1.42-1.43-2.37-1.81-.95-.38-1.96-.56-3.01-.56-.99,0-1.89.25-2.69.75-.8.5-1.49,1.21-2.07,2.14-.58.93-1.02,2.06-1.34,3.38-.32,1.32-.47,2.8-.47,4.44s.17,3.21.52,4.52c.34,1.31.83,2.41,1.45,3.3.62.89,1.35,1.57,2.19,2.02.84.46,1.75.68,2.72.68.91,0,1.87-.18,2.86-.55.99-.36,1.77-.95,2.34-1.76.45-.59.75-1.23.93-1.92.17-.69.33-1.65.47-2.89h.7c0,1.85.01,3.33.03,4.46.02,1.12.05,2.07.09,2.84h-.7c-.08-.87-.22-1.42-.41-1.64-.19-.22-.51-.19-.96.09-.75.53-1.55.99-2.39,1.38-.84.4-1.92.59-3.24.59-1.93,0-3.62-.44-5.06-1.31-1.45-.87-2.58-2.13-3.38-3.77s-1.2-3.62-1.2-5.93.42-4.26,1.25-5.96c.83-1.7,1.97-3.03,3.42-3.98s3.12-1.43,5-1.43Z"/>
    <path class="cls-1" d="M128.52,21.33v.61c-.69.02-1.21.1-1.57.23-.35.13-.59.38-.71.73-.12.35-.18.91-.18,1.66v15.09c0,.73.06,1.28.18,1.64.12.37.36.61.71.73.35.12.88.2,1.57.24v.61c-.47-.04-1.05-.07-1.75-.08-.7,0-1.4-.01-2.11-.01-.79,0-1.53,0-2.22.01-.69.01-1.25.04-1.67.08v-.61c.69-.04,1.21-.12,1.57-.24.36-.12.59-.37.71-.73.12-.37.18-.91.18-1.64v-15.09c0-.75-.06-1.3-.18-1.66-.12-.35-.36-.6-.71-.73-.35-.13-.88-.21-1.57-.23v-.61c.43.02.98.04,1.67.06s1.43.03,2.22.03c.71,0,1.42,0,2.11-.03.7-.02,1.28-.04,1.75-.06Z"/>
    <path class="cls-1" d="M139.62,21.18l7.42,19.13c.3.77.65,1.28,1.03,1.54.38.25.74.39,1.06.41v.61c-.41-.04-.9-.07-1.49-.08-.59,0-1.18-.01-1.76-.01-.79,0-1.53,0-2.22.01-.69.01-1.25.04-1.67.08v-.61c1.03-.04,1.69-.22,1.98-.53.28-.31.22-.99-.18-2.02l-5.66-15.12.49-.4-5.29,13.75c-.32.81-.52,1.5-.58,2.05-.06.56,0,1,.17,1.32.17.33.47.56.88.7s.94.22,1.57.24v.61c-.57-.04-1.16-.07-1.78-.08-.62,0-1.19-.01-1.72-.01s-.94,0-1.29.01c-.35.01-.68.04-.99.08v-.61c.41-.1.82-.34,1.25-.71.43-.38.81-1.02,1.16-1.93l7.15-18.43h.49ZM143.33,34.11v.61h-9.06l.3-.61h8.76Z"/>
  </g>
  <path class="cls-1" d="M25.86,18.42c0,6.13-2.33,13.66-5.64,19.45,2.23-1.45,4.42-3.19,6.48-5.31,3.58-3.66,6.98-8.44,9.16-13.44-3.99-2.62-4.88-9.24-4.88-11.95,0-3.02,1.77-6.42,4.6-6.42,2.6,0,4.28,2.65,4.28,6.7,0,3.79-1.19,7.84-3.06,11.74.48.24,1,.42,1.57.53v.37c-.63-.1-1.21-.29-1.74-.55-2.49,5.06-6.1,9.85-9.79,13.48-2.21,2.24-4.76,4.24-7.09,5.66-2.93,4.85-6.55,8.29-9.98,8.29-1.02,0-2.46-.46-2.42-1.81.05-2.79,8.79-4.84,10.93-6.09.1-.06.21-.13.31-.19,3.16-5.63,4.76-13.05,4.76-19.35C23.35,7.91,18.19.79,10.28.79,5.07.79.33,4.93.33,9.63c0,3.3,2.51,6.14,5.53,6.14,2.37,0,4.65-1.63,4.65-3.86,0-.98-.7-1.72-1.49-1.72v-.33c1.02,0,1.81.93,1.81,2.05,0,2.47-2.46,4.19-4.98,4.19-3.21,0-5.86-2.93-5.86-6.46C0,3.95,5.53,0,11.39,0c8.79,0,14.46,7.21,14.46,18.42ZM11.49,46c1.21,0,2.51-1.3,3.12-1.91,1.36-1.26,2.56-2.8,3.6-4.55-1.4.71-7.74,3.21-7.74,5.29,0,.74.42,1.16,1.02,1.16ZM36.02,18.72c1.43-3.38,2.3-6.86,2.3-10.16s-1.02-5.21-2.79-5.21c-2.28,0-3.4,3.35-3.4,6,0,2.48.85,7.21,3.88,9.37Z"/>
</svg>