<?xml version="1.0" encoding="UTF-8"?>
<svg id="Capa_1" data-name="Capa 1" xmlns="http://www.w3.org/2000/svg" viewBox="0 0 154.85 143.3">
  <defs>
    <style>
      .cls-1 {
        stroke-linecap: round;
      }

      .cls-1, .cls-2 {
        fill: none;
        stroke: #fff;
        stroke-miterlimit: 10;
        stroke-width: 4px;
      }
    </style>
  </defs>
  <path class="cls-2" d="M70.93,71.4c.02.29,0,.56-.07.81-2.43-1.37-5.64-2.83-9.76-4.06-4.65-1.38-10.85-2.11-18.18-2.44-1.11-.91-2.19-1.89-3.2-2.97-9.34-9.96-10.9-25.21-11.16-31.01-.05-1.26.98-2.36,2.17-2.31,5.44.27,19.73,1.94,29.09,11.9.39.42.78.84,1.13,1.28.62,11.43,5.61,21.52,9.94,28.28.02.19.02.35.03.52Z"/>
  <path class="cls-2" d="M126.45,31.73c-.25,5.8-1.82,21.05-11.16,31.01-.83.89-1.7,1.7-2.61,2.48l-.02.02c-9.4.46-19.97,1.94-28.55,6.79-.03-.2-.05-.4-.03-.62.02-.19.02-.37.03-.57,4.31-6.74,9.27-16.8,9.91-28.18.37-.46.76-.89,1.16-1.33,9.35-9.96,23.66-11.63,29.09-11.9,1.2-.05,2.22,1.04,2.17,2.31Z"/>
  <path class="cls-2" d="M94.1,40.2c0,.83-.02,1.63-.07,2.44-.64,11.37-5.59,21.44-9.91,28.18-.46.69-.89,1.35-1.33,1.97-.47.29-.93.59-1.38.89-1.15-.72-2.53-1.13-3.98-1.13s-2.9.44-4.08,1.2c-.3-.22-.62-.42-.96-.66-.49-.69-.98-1.43-1.5-2.22-4.33-6.76-9.32-16.85-9.94-28.28-.05-.79-.07-1.58-.07-2.39,0-17.34,10.53-32.07,14.81-37.34.94-1.15,2.65-1.15,3.59,0,4.28,5.27,14.81,20,14.81,37.34Z"/>
  <line class="cls-1" x1="77.43" y1="31.33" x2="77.43" y2="72.56"/>
  <path class="cls-2" d="M152.79,84.51v-27.62c0-1.15-1.33-1.75-2.21-1.03-3.77,3.12-11.9,8.83-20.93,9.08-4.36.13-10.38-.05-16.97.27l-.02.02c-9.4.46-19.97,1.94-28.55,6.79-.46.24-.89.49-1.33.78-.29.44-.59.86-.86,1.26,1.87,1.37,3.08,3.57,3.08,6.08,0,4.2-3.39,7.6-7.58,7.6s-7.6-3.4-7.6-7.6c0-2.54,1.25-4.79,3.17-6.15-.19-.29-.4-.59-.61-.89-.47-.29-.98-.59-1.53-.89-2.43-1.37-5.64-2.83-9.76-4.06-4.65-1.38-10.85-2.11-18.18-2.44-4.65-.24-9.79-.32-15.27-.35-11.44-.05-19.62-6.37-23.37-9.49-.89-.72-2.22-.12-2.22,1.03v27.62s-3.98,38.05,56.86,46.38c2.71.37,5.85,1.11,8.24,4.41,3.05,4.21,6.66,5.97,10.28,6,3.62-.03,7.21-1.79,10.26-6,2.41-3.3,5.53-4.04,8.24-4.41,60.83-8.32,56.86-46.38,56.86-46.38ZM39.89,105.1c-10.55-5.06-14.66-18.4-14.66-18.4,0,0,17.53-1.9,23.81,1.1,10.92,5.17,14.39,17.21,14.39,17.21,0,0-12.99,5.16-23.54.1ZM115.42,105.1c-10.55,5.06-23.54-.1-23.54-.1,0,0,3.49-12.03,14.39-17.21,6.3-3,23.81-1.1,23.81-1.1,0,0-4.11,13.35-14.66,18.4Z"/>
  <path class="cls-2" d="M85.01,80.14c0,4.2-3.39,7.6-7.58,7.6s-7.6-3.4-7.6-7.6c0-2.54,1.25-4.79,3.17-6.15.12-.08.24-.17.35-.24,1.18-.76,2.58-1.2,4.08-1.2s2.83.4,3.98,1.13c.19.1.35.22.52.37,1.87,1.37,3.08,3.57,3.08,6.08Z"/>
</svg>